<?xml version="1.0" encoding="iso-8859-1"?>
<!-- Generator: Adobe Illustrator 19.0.0, SVG Export Plug-In . SVG Version: 6.00 Build 0)  -->
<svg version="1.1" id="Layer_1" xmlns="http://www.w3.org/2000/svg" xmlns:xlink="http://www.w3.org/1999/xlink" x="0px" y="0px"
	 viewBox="0 0 512 512" style="enable-background:new 0 0 512 512;" xml:space="preserve">
<circle style="fill:#366796;" cx="256" cy="256" r="256"/>
<g>
	<path style="fill:#273B7A;" d="M132.948,359.036L284.341,510.43c74.764-8.237,139.829-48.656,181.036-107.113L305.993,243.933
		L132.948,359.036z"/>
	<path style="fill:#273B7A;" d="M392.776,118.982c-41.825-26.462-88.447-18.091-97.861-21.225l42.612,34.121l-43.151,1.85
		l40.996,34.783l-23.704,1.293c37.495,6.034,37.398,54.243,37.398,54.243l139.361,139.361C503.548,330.742,512,294.36,512,256
		c0-6.239-0.234-12.424-0.674-18.551L395.631,121.754L392.776,118.982z"/>
</g>
<circle style="fill:#FFEDB5;" cx="214.557" cy="293.633" r="104.584"/>
<path style="fill:#FDE085;" d="M214.557,189.056c-0.748,0-1.486,0.04-2.229,0.057v209.055c0.745,0.016,1.481,0.057,2.229,0.057
	c57.759,0,104.584-46.823,104.584-104.584S272.317,189.056,214.557,189.056z"/>
<g>
	<circle style="fill:#386895;" cx="171.77" cy="279.911" r="9.507"/>
	<circle style="fill:#386895;" cx="259.724" cy="279.911" r="9.507"/>
	<path style="fill:#386895;" d="M186.28,336.555c6.684,8.214,16.863,13.469,28.277,13.469c11.414,0,21.595-5.254,28.277-13.469
		H186.28z"/>
</g>
<g>
	<path style="fill:#FFC61B;" d="M353.963,225.577c-4.761,0-8.62-3.858-8.62-8.62c0-24.762-20.146-44.908-44.908-44.908
		c-4.761,0-8.62-3.858-8.62-8.62s3.858-8.62,8.62-8.62c34.268,0,62.147,27.879,62.147,62.147
		C362.582,221.717,358.724,225.577,353.963,225.577z"/>
	<path style="fill:#FFC61B;" d="M389.791,225.577c-4.761,0-8.62-3.858-8.62-8.62c0-21.568-8.397-41.843-23.647-57.092
		c-15.246-15.246-35.519-23.643-57.078-23.643c-0.005,0-0.005,0-0.009,0c-4.761,0-8.621-3.858-8.621-8.618
		c0-4.761,3.858-8.621,8.618-8.621c0.003,0,0.009,0,0.012,0c26.167,0,50.766,10.188,69.27,28.693
		c18.504,18.504,28.696,43.11,28.696,69.282C398.41,221.717,394.552,225.577,389.791,225.577z"/>
	<path style="fill:#FFC61B;" d="M426.667,226.118L426.667,226.118c-4.761,0-8.62-3.858-8.62-8.62
		c0-31.565-12.29-61.237-34.606-83.554c-22.311-22.311-51.979-34.599-83.532-34.599c-0.007,0-0.01,0-0.017,0
		c-4.761,0-8.621-3.858-8.621-8.618c0-4.761,3.858-8.621,8.618-8.621c0.007,0,0.014,0,0.021,0c36.161,0,70.153,14.081,95.722,39.648
		c25.572,25.572,39.657,59.576,39.655,95.744C435.286,222.26,431.426,226.118,426.667,226.118z"/>
</g>
<g>
</g>
<g>
</g>
<g>
</g>
<g>
</g>
<g>
</g>
<g>
</g>
<g>
</g>
<g>
</g>
<g>
</g>
<g>
</g>
<g>
</g>
<g>
</g>
<g>
</g>
<g>
</g>
<g>
</g>
</svg>
